<svg width="40" height="40" viewBox="0 0 40 40" fill="none" xmlns="http://www.w3.org/2000/svg">
<path d="M35 11.25V35C35 36.3261 34.4732 37.5979 33.5355 38.5355C32.5979 39.4732 31.3261 40 30 40H10C8.67392 40 7.40215 39.4732 6.46447 38.5355C5.52678 37.5979 5 36.3261 5 35V5C5 3.67392 5.52678 2.40215 6.46447 1.46447C7.40215 0.526784 8.67392 0 10 0L23.75 0L35 11.25ZM27.5 11.25C26.5054 11.25 25.5516 10.8549 24.8483 10.1517C24.1451 9.44839 23.75 8.49456 23.75 7.5V2.5H10C9.33696 2.5 8.70107 2.76339 8.23223 3.23223C7.76339 3.70107 7.5 4.33696 7.5 5V35C7.5 35.663 7.76339 36.2989 8.23223 36.7678C8.70107 37.2366 9.33696 37.5 10 37.5H30C30.663 37.5 31.2989 37.2366 31.7678 36.7678C32.2366 36.2989 32.5 35.663 32.5 35V11.25H27.5Z" fill="black"/>
<path d="M21.615 16.615C21.7311 16.4986 21.8691 16.4062 22.0209 16.3432C22.1728 16.2802 22.3356 16.2477 22.5 16.2477C22.6644 16.2477 22.8272 16.2802 22.9791 16.3432C23.131 16.4062 23.2689 16.4986 23.385 16.615L28.385 21.615C28.5014 21.7311 28.5938 21.869 28.6568 22.0209C28.7198 22.1728 28.7522 22.3356 28.7522 22.5C28.7522 22.6644 28.7198 22.8272 28.6568 22.9791C28.5938 23.1309 28.5014 23.2689 28.385 23.385L23.385 28.385C23.1503 28.6197 22.8319 28.7516 22.5 28.7516C22.1681 28.7516 21.8497 28.6197 21.615 28.385C21.3803 28.1503 21.2484 27.8319 21.2484 27.5C21.2484 27.168 21.3803 26.8497 21.615 26.615L25.7325 22.5L21.615 18.385C21.4986 18.2689 21.4062 18.1309 21.3432 17.9791C21.2802 17.8272 21.2478 17.6644 21.2478 17.5C21.2478 17.3356 21.2802 17.1728 21.3432 17.0209C21.4062 16.869 21.4986 16.7311 21.615 16.615ZM18.385 16.615C18.2689 16.4986 18.131 16.4062 17.9791 16.3432C17.8272 16.2802 17.6644 16.2477 17.5 16.2477C17.3356 16.2477 17.1728 16.2802 17.0209 16.3432C16.8691 16.4062 16.7311 16.4986 16.615 16.615L11.615 21.615C11.4986 21.7311 11.4062 21.869 11.3432 22.0209C11.2802 22.1728 11.2478 22.3356 11.2478 22.5C11.2478 22.6644 11.2802 22.8272 11.3432 22.9791C11.4062 23.1309 11.4986 23.2689 11.615 23.385L16.615 28.385C16.8497 28.6197 17.1681 28.7516 17.5 28.7516C17.8319 28.7516 18.1503 28.6197 18.385 28.385C18.6197 28.1503 18.7516 27.8319 18.7516 27.5C18.7516 27.168 18.6197 26.8497 18.385 26.615L14.2675 22.5L18.385 18.385C18.5014 18.2689 18.5938 18.1309 18.6568 17.9791C18.7198 17.8272 18.7522 17.6644 18.7522 17.5C18.7522 17.3356 18.7198 17.1728 18.6568 17.0209C18.5938 16.869 18.5014 16.7311 18.385 16.615Z" fill="black"/>
</svg>
