<svg width="40" height="40" viewBox="0 0 40 40" fill="none" xmlns="http://www.w3.org/2000/svg">
<path d="M20 2.5C24.6413 2.5 29.0925 4.34374 32.3744 7.62563C35.6563 10.9075 37.5 15.3587 37.5 20C37.5 24.6413 35.6563 29.0925 32.3744 32.3744C29.0925 35.6563 24.6413 37.5 20 37.5C15.3587 37.5 10.9075 35.6563 7.62563 32.3744C4.34374 29.0925 2.5 24.6413 2.5 20C2.5 15.3587 4.34374 10.9075 7.62563 7.62563C10.9075 4.34374 15.3587 2.5 20 2.5ZM20 35C23.9782 35 27.7936 33.4196 30.6066 30.6066C33.4196 27.7936 35 23.9782 35 20C35 16.0218 33.4196 12.2064 30.6066 9.3934C27.7936 6.58035 23.9782 5 20 5C16.0218 5 12.2064 6.58035 9.3934 9.3934C6.58035 12.2064 5 16.0218 5 20C5 23.9782 6.58035 27.7936 9.3934 30.6066C12.2064 33.4196 16.0218 35 20 35ZM16.25 13.75C17.0833 13.75 17.5 14.1667 17.5 15V25C17.5 25.8333 17.0833 26.25 16.25 26.25C15.4167 26.25 15 25.8333 15 25V15C15 14.1667 15.4167 13.75 16.25 13.75ZM23.75 13.75C24.5833 13.75 25 14.1667 25 15V25C25 25.8333 24.5833 26.25 23.75 26.25C22.9167 26.25 22.5 25.8333 22.5 25V15C22.5 14.1667 22.9167 13.75 23.75 13.75Z" fill="black"/>
</svg>
